<svg width="380" height="465" viewBox="0 0 380 465" fill="none" xmlns="http://www.w3.org/2000/svg">
<path d="M139.006 237.966H334.111H380L341.108 213.61L20.179 12.636L0 0V23.809V130.785V224.783V451.714V464.896H13.183H334.111H365.937L343.433 442.392L139.006 237.966Z" fill="#22408B"/>
<path d="M334.111 224.783L13.1826 23.8086V130.785V224.783V451.714H334.111L107.18 224.783H334.111Z" fill="#DB1E3D"/>
<path d="M131.56 183.251L126.099 179.165L136.87 171.106L123.839 167.783C123.838 167.781 123.838 167.78 123.837 167.778L130.702 156.214L117.387 158.131L119.304 144.816L107.74 151.681C107.738 151.68 107.737 151.68 107.735 151.679L104.412 138.648L96.3526 149.419L88.2936 138.648L84.9706 151.679C84.9686 151.68 84.9676 151.68 84.9656 151.681L73.4016 144.816L75.3186 158.131L62.0036 156.214L68.8686 167.778C68.8676 167.78 68.8676 167.781 68.8666 167.783L55.8356 171.106L66.6066 179.165L61.1476 183.249C48.5356 175.73 38.2186 164.141 32.4316 149.417C32.4316 184.719 61.0496 213.337 96.3516 213.337C131.654 213.337 160.272 184.719 160.272 149.417C154.676 163.661 144.52 175.511 131.56 183.251Z" fill="white"/>
<path d="M138.43 349.526L138.431 349.522L165.034 338.25L138.431 326.977L138.43 326.973L155.832 303.91L127.154 307.45L130.694 278.772L107.63 296.174L107.626 296.173L96.3538 269.57L85.0818 296.173L85.0778 296.174L62.0148 278.772L65.5538 307.45L36.8758 303.91L54.2788 326.973L54.2778 326.977L27.6748 338.25L54.2778 349.522L54.2788 349.526L36.8758 372.589L65.5538 369.049L62.0148 397.728L85.0778 380.325L85.0818 380.326L96.3538 406.929L107.626 380.326L107.63 380.325L130.694 397.728L127.154 369.049L155.832 372.589L138.43 349.526Z" fill="white"/>
</svg>
