<svg width="4500" height="2626" viewBox="0 0 4500 2626" fill="none" xmlns="http://www.w3.org/2000/svg">
<mask id="mask0_1851_6" style="mask-type:luminance" maskUnits="userSpaceOnUse" x="0" y="0" width="4500" height="2626">
<path d="M4500 0.275391H0V2625.72H4500V0.275391Z" fill="white"/>
</mask>
<g mask="url(#mask0_1851_6)">
<path d="M4500 0.275391H0V2625.72H4500V0.275391Z" fill="#F5CD28"/>
</g>
<mask id="mask1_1851_6" style="mask-type:luminance" maskUnits="userSpaceOnUse" x="0" y="0" width="4500" height="2626">
<path d="M4500 0.275391H0V2625.72H4500V0.275391Z" fill="white"/>
</mask>
<g mask="url(#mask1_1851_6)">
<path d="M1715.2 275.76H951.353V2350.24H1715.2V275.76Z" fill="#ED6F22"/>
</g>
<mask id="mask2_1851_6" style="mask-type:luminance" maskUnits="userSpaceOnUse" x="0" y="0" width="4500" height="2626">
<path d="M4500 0.275391H0V2625.72H4500V0.275391Z" fill="white"/>
</mask>
<g mask="url(#mask2_1851_6)">
<path d="M952.131 275.76H199.007V2350.77H952.131V275.76Z" fill="#2F742E"/>
</g>
<mask id="mask3_1851_6" style="mask-type:luminance" maskUnits="userSpaceOnUse" x="0" y="0" width="4500" height="2626">
<path d="M4500 0.275391H0V2625.72H4500V0.275391Z" fill="white"/>
</mask>
<g mask="url(#mask3_1851_6)">
<path d="M4300.73 275.76H1914.61V2350.77H4300.73V275.76Z" fill="#8E1841"/>
</g>
<mask id="mask4_1851_6" style="mask-type:luminance" maskUnits="userSpaceOnUse" x="0" y="0" width="4500" height="2626">
<path d="M4500 0.275391H0V2625.72H4500V0.275391Z" fill="white"/>
</mask>
<g mask="url(#mask4_1851_6)">
<mask id="mask5_1851_6" style="mask-type:luminance" maskUnits="userSpaceOnUse" x="0" y="0" width="4500" height="2626">
<path d="M4500 0.275391H0V2625.72H4500V0.275391Z" fill="white"/>
</mask>
<g mask="url(#mask5_1851_6)">
<path d="M2824.47 1238.88L2863.87 1239.94C2863.87 1239.94 2819.62 1277.65 2829.7 1327.92C2876.05 1259.32 2893.07 1272.4 2893.07 1272.4C2878.93 1287.59 2851.97 1309.07 2872.91 1355.15C2891.1 1308.03 2928.3 1271.36 2928.3 1271.36C2928.3 1271.36 2918.35 1323.74 2940.47 1372.44C2956.44 1323.74 2983.94 1282.89 2983.94 1282.89C2983.94 1282.89 2980.01 1334.73 3002.92 1354.11C3021.38 1337.87 3033.3 1296.5 3033.3 1296.5C3033.3 1296.5 3067.6 1357.26 3088.69 1366.16C3105.7 1325.31 3105.7 1292.84 3105.7 1292.84C3105.7 1292.84 3176.41 1343.11 3233.1 1313.78C3182.57 1295.45 3165.54 1253.03 3165.54 1253.03C3165.54 1253.03 3257.06 1293.36 3296.48 1275.55C3258.37 1246.22 3168.42 1202.75 3168.42 1202.75C3168.42 1202.75 3234.8 1227.37 3254.19 1221.08C3245.02 1207.99 3215.82 1191.76 3215.82 1191.76L2824.47 1238.88Z" fill="#F5CD28"/>
</g>
<mask id="mask6_1851_6" style="mask-type:luminance" maskUnits="userSpaceOnUse" x="0" y="0" width="4500" height="2626">
<path d="M4500 0.275391H0V2625.72H4500V0.275391Z" fill="white"/>
</mask>
<g mask="url(#mask6_1851_6)">
<path d="M2942.7 1372.96C2919.26 1330.54 2924.24 1284.46 2925.81 1273.46C2920.96 1282.89 2890.58 1315.88 2875.27 1356.2C2851.04 1312.21 2872.91 1289.7 2887.18 1275.03L2890.46 1271.88C2886.53 1273.46 2868.98 1273.46 2831.54 1329.49C2817 1277.12 2861.92 1238.36 2862.44 1237.84L2824.47 1242.03C2823.02 1242.03 2822.36 1240.46 2822.36 1238.88C2822.36 1237.84 2823.29 1236.27 2824.47 1236.79L2863.87 1237.84C2865.05 1242.56 2822.36 1279.21 2832.06 1327.4C2857.59 1282.36 2876.05 1270.83 2886.01 1269.79C2891.63 1268.74 2894.26 1269.79 2894.51 1270.31L2890.58 1278.17C2876.32 1293.36 2856.42 1313.78 2875.14 1354.11C2888.88 1306.98 2926.07 1269.79 2926.59 1269.79C2930.52 1272.4 2920.96 1324.26 2942.7 1370.87C2954.35 1323.22 2981.85 1281.84 2981.98 1281.32C2986.16 1282.89 2982.5 1334.21 3004.63 1352.54C3018.91 1336.82 3030.81 1296.49 3030.81 1295.97C3035.79 1296.49 3069.57 1355.15 3089.74 1364.05C3103.09 1325.31 3103.48 1293.36 3103.48 1292.83C3105.45 1291.79 3149.18 1320.06 3193.43 1320.06C3206.26 1320.06 3219.75 1317.97 3231.8 1311.68C3181.26 1297.54 3163.84 1256.18 3163.06 1254.07C3166.2 1252.5 3227.48 1277.64 3270.3 1277.64C3279.72 1277.64 3288.76 1276.07 3295.3 1273.46C3257.33 1248.84 3168.16 1205.36 3167.51 1205.36C3169.34 1201.7 3221.72 1219.51 3245.93 1219.51C3249.09 1219.51 3251.57 1219.51 3253.54 1218.98C3243.45 1209.56 3215.04 1194.37 3214.64 1193.85C3218.44 1190.71 3246.86 1206.42 3256.15 1219.51C3242.27 1226.32 3209.01 1218.46 3187.41 1211.65C3216.48 1224.23 3270.42 1252.5 3297.92 1273.46C3260.21 1294.4 3179.55 1261.93 3166.2 1256.18C3172.35 1261.93 3190.82 1295.97 3233.76 1311.16C3179.82 1344.16 3114.49 1301.74 3105.45 1295.45C3108.2 1300.17 3106.5 1330.01 3091.17 1367.2C3067.74 1359.35 3036.97 1307.5 3031.86 1299.12C3033.04 1305.92 3021.39 1341.02 3004.63 1356.2C2981.58 1338.91 2981.06 1298.08 2981.32 1286.02C2977.4 1297.02 2956.05 1332.64 2942.7 1372.96Z" fill="#8E1841"/>
</g>
<mask id="mask7_1851_6" style="mask-type:luminance" maskUnits="userSpaceOnUse" x="0" y="0" width="4500" height="2626">
<path d="M4500 0.275391H0V2625.72H4500V0.275391Z" fill="white"/>
</mask>
<g mask="url(#mask7_1851_6)">
<path d="M3375.17 747.111C3496.93 736.104 3684.83 835.614 3784.2 902.128C3784.2 879.617 3784.2 857.615 3806.59 846.621C3828.46 835.613 3861.71 857.615 3850.84 891.134C3817.59 968.12 3684.83 879.617 3640.57 857.615L3662.69 902.128C3596.45 891.134 3585.45 879.617 3541.19 824.619C3530.06 868.609 3530.06 879.616 3474.68 879.616C3495.76 846.62 3502.56 835.613 3474.68 802.617L3463.68 868.609L3408.82 791.623V868.609C3397.29 857.615 3353.17 824.619 3331.04 824.619C3297.91 813.625 3275.79 879.616 3264.66 912.612C3297.91 879.616 3308.92 857.615 3364.29 879.616C3334.45 907.892 3343.22 941.934 3375.17 968.119C3375.17 968.119 3381.05 922.038 3384.46 911.553C3402.14 924.652 3439.59 973.884 3485.81 979.113C3519.06 979.113 3552.19 968.119 3585.45 957.125C3695.82 945.595 3939.35 968.119 3883.83 1133.62C3872.97 1167.14 3861.71 1188.61 3839.45 1210.61C3994.47 1266.13 3861.71 1465.13 3828.46 1564.12C3806.59 1652.64 3821.9 1722.81 3930.84 1711.82C3908.85 1755.81 3872.97 1763.14 3828.46 1763.14C3828.46 1763.14 3834.35 1789.85 3862.76 1802.43C3815.36 1844.33 3878.99 1908.21 3850.84 1939.64C3803.19 1962.69 3740.21 1928.65 3740.21 1928.65L3737.06 1959.54C3737.06 1959.54 3653.79 1954.31 3651.83 1950.63C3651.83 1950.63 3675.4 1906.12 3673.95 1905.07C3651.83 1938.59 3630.35 1957.97 3585.45 1950.63C3585.45 1950.63 3588.84 1930.21 3613.59 1903.51C3580.07 1937.03 3576.28 1951.69 3541.19 1950.63C3541.19 1895.65 3574.06 1829.66 3640.57 1851.14C3651.83 1851.14 3686.78 1878.89 3703.02 1861.08C3716.24 1842.22 3708.13 1777.29 3708.13 1755.81C3715.19 1657.87 3695.82 1663.63 3640.57 1608.13C3596.45 1575.13 3564.1 1524.33 3508.85 1513.32C3453.72 1502.33 3364.29 1564.12 3320.05 1586.12C3209.53 1652.64 3110.16 1696.63 2988.39 1718.63C2988.39 1718.63 2990.75 1713.39 2990.75 1701.87C2990.75 1695.06 3110.16 1601.84 3130.98 1438.43C3098.37 1599.75 2982.23 1684.59 2977.92 1714.96C2973.2 1744.29 2949.64 1795.62 2946.76 1798.75C2961.43 1790.37 3007.25 1767.86 3065.65 1763.14C3052.95 1831.75 2988.39 1818.14 2977.39 1851.14C2977.39 1884.66 3021.38 1928.65 2977.39 1950.63H2800.38C2800.38 1950.63 2827.74 1912.93 2828.92 1902.98C2804.96 1917.11 2789.9 1955.35 2738.04 1951.16C2740.01 1936.5 2764.77 1914.5 2760.57 1905.6C2730.59 1933.35 2716.71 1956.92 2678.74 1950.63C2689.74 1917.64 2689.74 1873.65 2734 1873.65C2767.11 1862.65 2800.38 1884.66 2822.63 1851.14C2866.89 1796.14 2814.39 1675.16 2803.51 1608.65C2803.51 1553.65 2803.51 1543.18 2789.38 1476.14L2800.38 1674.63C2756.12 1641.11 2711.86 1619.64 2678.74 1575.13C2601.35 1476.14 2623.61 1365.64 2722.99 1299.12C2767.11 1266.13 2791.07 1248.85 2846.46 1226.84C2835.46 1193.85 2862.17 1168.71 2823.02 1158.76C2811.11 1179.18 2799.99 1201.71 2777.33 1200.14L2789.38 1144.62C2789.38 1144.62 2749.44 1147.24 2757.3 1218.46C2711.47 1196.46 2733.99 1144.62 2733.99 1144.62H2711.86C2711.86 1144.62 2711.74 1210.09 2675.73 1223.18C2685.42 1192.8 2689.74 1144.62 2689.74 1144.62C2689.74 1144.62 2630.42 1215.33 2596.25 1192.28C2616.41 1169.23 2631.99 1165.57 2629.24 1137.81C2626.63 1110.57 2612.23 1074.96 2609.87 1069.2C2622.31 1075.49 2705.7 1100.1 2758.09 1073.92C2754.55 1091.72 2756.12 1111.62 2756.12 1111.62C2811.11 1100.63 2822.63 1100.63 2878.02 1122.11C2866.89 1045.63 2822.63 1033.59 2778.24 979.115V1023.12C2733.99 1012.11 2722.99 1001.12 2700.73 957.126L2667.61 979.114C2609.34 944.55 2566.27 862.858 2649.02 867.564C2698.5 873.852 2656.47 912.613 2656.47 912.613C2656.47 912.613 2783.23 872.806 2833.5 868.61C2833.5 868.61 2818.97 837.719 2772.08 831.954C2810.98 803.141 2850 793.716 2878.02 855.001C2905.64 857.093 2931.44 823.051 2914.94 780.107C2956.05 779.584 2976.22 805.246 2994.94 832.477C3010.39 835.091 3025.7 819.378 3022.17 764.394C3060.53 797.39 3079.79 807.861 3082.4 835.614C3115.4 842.948 3137.79 835.614 3187.41 813.626C3176.14 857.616 3176.14 868.61 3131.89 891.134C3163.31 929.372 3166.72 975.976 3160.18 992.736C3148.91 989.599 3146.3 988.553 3138.7 986.448C3141.45 1003.73 3144.6 1050.87 3143.42 1078.62H3121.03L3154.28 1178.13L3131.89 1210.61C3209.53 1178.13 3287.05 1188.61 3364.29 1167.14C3452.81 1155.62 3541.19 1122.1 3640.56 1122.1C3706.94 1122.1 3706.94 1155.62 3795.46 1155.62V1100.63C3795.46 1056.64 3762.33 1012.11 3706.94 1001.12C3673.95 1001.12 3618.43 1023.12 3585.45 1033.59C3541.19 1045.63 3474.67 1045.63 3430.42 1045.63C3287.05 1023.12 3309.56 1008.97 3259.8 982.265C3229.83 990.122 3212.93 1015.78 3197.88 1060.82C3170.12 1019.44 3176.14 968.12 3209.53 945.595C3176.15 824.62 3264.66 769.099 3375.17 747.111Z" fill="#F5CD28"/>
</g>
<mask id="mask8_1851_6" style="mask-type:luminance" maskUnits="userSpaceOnUse" x="0" y="0" width="4500" height="2626">
<path d="M4500 0.275391H0V2625.72H4500V0.275391Z" fill="white"/>
</mask>
<g mask="url(#mask8_1851_6)">
<path d="M3408.82 1741.14C3386.43 1707.62 3308.92 1652.64 3331.04 1597.12C3364.29 1542.13 3552.45 1453.62 3585.45 1575.13C3596.45 1608.13 3562.13 1696.1 3551.14 1729.62C3567.9 1724.9 3586.62 1699.24 3641.09 1708.68C3630.87 1752.15 3564.49 1785.67 3564.49 1785.67C3571.56 1814.99 3519.06 1950.63 3519.06 1950.63H3375.17L3397.29 1906.64L3364.29 1950.63H3308.92L3353.17 1895.65C3353.17 1895.65 3300.79 1956.92 3256.42 1954.3C3267.02 1865.79 3320.05 1851.13 3397.29 1884.65C3408.82 1840.65 3430.42 1785.14 3408.82 1741.14Z" fill="#F5CD28"/>
</g>
<mask id="mask9_1851_6" style="mask-type:luminance" maskUnits="userSpaceOnUse" x="0" y="0" width="4500" height="2626">
<path d="M4500 0.275391H0V2625.72H4500V0.275391Z" fill="white"/>
</mask>
<g mask="url(#mask9_1851_6)">
<path d="M3258.76 1956.92L3256.15 1956.4C3263.48 1869.46 3312.97 1845.89 3398.34 1882.55C3396.9 1876.8 3398.74 1869.46 3400.97 1861.61C3411.7 1822.84 3424.4 1778.33 3406.6 1742.2C3400.7 1733.82 3391.54 1723.86 3381.32 1712.86C3350.42 1679.87 3312.06 1639.02 3328.82 1596.07C3351.46 1558.89 3437.23 1511.75 3501.39 1511.75C3546.56 1511.75 3576.41 1533.23 3587.68 1574.6C3597.62 1603.93 3573.26 1673.06 3558.73 1714.43L3553.62 1729.62C3555.32 1725.96 3559.52 1723.33 3564.5 1720.2C3579.16 1711.82 3600.76 1699.24 3641.61 1706.57C3633.1 1753.19 3568.43 1786.19 3565.81 1787.76C3573.79 1814.99 3523.51 1945.4 3521.28 1951.69L3375.17 1952.74L3395.47 1905.07L3366.26 1952.21L3308.92 1952.74L3337.33 1912.93C3320.05 1931.78 3288.23 1956.92 3258.76 1956.92ZM3339.03 1911.36L3310.88 1952.22L3364.29 1948.02L3395.59 1905.07L3377.39 1951.69L3519.05 1948.02C3517.35 1948.02 3568.94 1814.47 3562.13 1786.19C3564.36 1783.04 3629.17 1750.04 3638.86 1708.15C3632.32 1709.73 3625.12 1708.68 3618.43 1708.68C3593.29 1708.68 3578.64 1717.58 3566.99 1724.38C3561.36 1728.06 3556.77 1730.15 3551.93 1732.24L3554.28 1712.86C3567.63 1675.16 3592.51 1603.93 3583.22 1576.18C3569.6 1526.94 3531.24 1516.99 3501.39 1516.99C3433.56 1516.99 3352.39 1566.75 3333.13 1598.16C3317.42 1637.97 3354.61 1677.78 3384.73 1709.2C3395.47 1720.72 3404.89 1731.19 3410.78 1739.57C3429.37 1777.81 3416.8 1823.37 3405.55 1863.18C3403.71 1871.03 3401.48 1877.84 3399.51 1884.66C3371.63 1876.28 3349.76 1871.03 3331.43 1871.03C3290.19 1871.03 3266.36 1897.22 3259.03 1952.22C3301.32 1951.69 3350.94 1894.6 3351.46 1894.08C3351.86 1895.65 3347.01 1902.98 3339.03 1911.36Z" fill="#8E1841"/>
</g>
<mask id="mask10_1851_6" style="mask-type:luminance" maskUnits="userSpaceOnUse" x="0" y="0" width="4500" height="2626">
<path d="M4500 0.275391H0V2625.72H4500V0.275391Z" fill="white"/>
</mask>
<g mask="url(#mask10_1851_6)">
<path d="M2816.21 909.462C2801.56 918.365 2813.6 979.114 2836.65 969.165C2865.05 956.08 2827.74 902.651 2816.21 909.462Z" fill="#F5CD28"/>
</g>
<mask id="mask11_1851_6" style="mask-type:luminance" maskUnits="userSpaceOnUse" x="0" y="0" width="4500" height="2626">
<path d="M4500 0.275391H0V2625.72H4500V0.275391Z" fill="white"/>
</mask>
<g mask="url(#mask11_1851_6)">
<path d="M2831.28 972.316C2822.9 972.316 2814.78 963.413 2810.19 947.7C2805.74 932.509 2806.14 913.136 2815.3 907.37C2830.1 906.847 2844.89 926.744 2848.56 944.549C2851.43 957.125 2847.64 966.551 2837.69 971.27L2831.28 972.316ZM2818.7 911.031C2811.64 914.705 2810.46 931.464 2814.78 946.655C2817.66 957.126 2823.55 967.598 2831.28 967.598V970.212L2835.73 966.552C2845.16 962.355 2845.68 952.407 2843.98 945.073C2840.05 928.313 2824.99 911.031 2818.7 911.031Z" fill="#8E1841"/>
</g>
<mask id="mask12_1851_6" style="mask-type:luminance" maskUnits="userSpaceOnUse" x="0" y="0" width="4500" height="2626">
<path d="M4500 0.275391H0V2625.72H4500V0.275391Z" fill="white"/>
</mask>
<g mask="url(#mask12_1851_6)">
<path d="M2830.35 890.611C2857.85 909.462 2901.07 960.786 2954.75 957.648C2914.29 924.652 2922.4 900.036 2922.4 900.036C2943.35 925.175 3014.05 948.745 3037.37 938.797C3010.26 918.364 3004.89 916.272 2998.99 897.422C3031.33 901.082 3071.66 907.893 3103.75 894.271L2830.35 890.611Z" fill="#F5CD28"/>
</g>
<mask id="mask13_1851_6" style="mask-type:luminance" maskUnits="userSpaceOnUse" x="0" y="0" width="4500" height="2626">
<path d="M4500 0.275391H0V2625.72H4500V0.275391Z" fill="white"/>
</mask>
<g mask="url(#mask13_1851_6)">
<path d="M2944.14 957.126C2905.91 957.126 2873.82 929.895 2850 908.94C2842.28 902.652 2835.46 896.9 2829.18 892.181C2828.13 891.135 2827.88 890.089 2828.65 889.044C2829.44 887.998 2830.88 887.475 2832.06 888.521C2838.08 892.704 2845.16 898.469 2853.01 905.28C2878.93 927.791 2913.76 957.65 2954.62 955.558C2911.79 925.699 2919.78 900.561 2920.05 899.515C2944.67 923.085 3013.66 946.133 3036.44 936.171L3027.94 934.602C3007.26 919.411 3002.15 916.274 2996.77 897.946L3008.56 896.377C3039.33 900.037 3073.89 904.757 3102.82 892.181C3074.55 909.463 3039.33 904.757 3007.78 901.083L2998.75 900.037C3006.6 913.136 3010.65 916.273 3030.81 930.941L3038.94 936.693C3014.32 951.361 2945.06 928.836 2922.01 903.697C2923.71 908.939 2924.24 929.372 2956.05 956.08C2952.12 956.603 2948.06 957.126 2944.14 957.126Z" fill="#8E1841"/>
</g>
<mask id="mask14_1851_6" style="mask-type:luminance" maskUnits="userSpaceOnUse" x="0" y="0" width="4500" height="2626">
<path d="M4500 0.275391H0V2625.72H4500V0.275391Z" fill="white"/>
</mask>
<g mask="url(#mask14_1851_6)">
<path d="M2882.86 1227.37L2886.01 1180.76C2886.01 1180.76 2916.38 1251.46 2938.51 1252.51C2924.37 1200.66 2930.52 1159.81 2930.52 1159.81L2882.86 1227.37Z" fill="#F5CD28"/>
</g>
<mask id="mask15_1851_6" style="mask-type:luminance" maskUnits="userSpaceOnUse" x="0" y="0" width="4500" height="2626">
<path d="M4500 0.275391H0V2625.72H4500V0.275391Z" fill="white"/>
</mask>
<g mask="url(#mask15_1851_6)">
<path d="M2939.68 1251.98C2914.42 1251.98 2886.79 1188.61 2883.65 1181.81L2885.35 1227.37C2885.35 1228.94 2883.78 1228.94 2882.86 1229.46C2881.68 1228.94 2880.63 1228.41 2880.63 1227.37L2883.65 1180.76C2896.48 1199.09 2921.75 1249.37 2938.77 1249.89C2922.28 1201.7 2927.77 1159.81 2928.03 1159.28C2932.61 1160.33 2926.85 1201.18 2940.47 1251.98C2940.47 1251.98 2940.22 1251.98 2939.68 1251.98Z" fill="#8E1841"/>
</g>
<mask id="mask16_1851_6" style="mask-type:luminance" maskUnits="userSpaceOnUse" x="0" y="0" width="4500" height="2626">
<path d="M4500 0.275391H0V2625.72H4500V0.275391Z" fill="white"/>
</mask>
<g mask="url(#mask16_1851_6)">
<path d="M2953.57 1170.28C2953.57 1170.28 3014.05 1281.32 3043.52 1263.5C2999 1223.71 3004.11 1172.91 3004.11 1172.91C3004.11 1172.91 3024.01 1241.51 3083.84 1262.45C3087.77 1223.71 3060.28 1161.38 3060.28 1161.38C3060.28 1161.38 3110.16 1248.32 3135.17 1250.41C3151.14 1229.98 3145.38 1208.52 3145.38 1208.52L2953.57 1170.28Z" fill="#F5CD28"/>
</g>
<mask id="mask17_1851_6" style="mask-type:luminance" maskUnits="userSpaceOnUse" x="0" y="0" width="4500" height="2626">
<path d="M4500 0.275391H0V2625.72H4500V0.275391Z" fill="white"/>
</mask>
<g mask="url(#mask17_1851_6)">
<path d="M3035.26 1267.7C3033.83 1267.7 3032.51 1267.7 3030.81 1267.17C2999.26 1258.79 2953.57 1175.52 2951.6 1171.85C2950.94 1170.28 2951.34 1169.23 2952.65 1168.19C2953.57 1168.19 2955.27 1168.19 2955.8 1169.23C2956.05 1170.28 3002.15 1254.6 3032.13 1262.45C3036.19 1263.5 3039.33 1262.98 3042.07 1261.41C2997.04 1225.27 3001.74 1172.91 3001.74 1172.38C3006.6 1172.91 3027.02 1239.42 3084.63 1259.84C3085.29 1224.75 3058.58 1162.94 3058.31 1162.42C3058.31 1162.42 3058.31 1162.42 3058.31 1162.94C3059.36 1162.94 3061.19 1165.05 3063.42 1168.71C3082.93 1194.89 3117.36 1246.22 3135.17 1248.32C3148.26 1229.98 3143.15 1209.56 3142.9 1209.04H3143.15C3147.74 1209.04 3153.64 1231.04 3137.13 1251.98C3116.44 1250.94 3084.76 1205.36 3068.53 1179.7C3077.82 1200.66 3088.69 1236.79 3086.33 1262.45C3034.48 1246.74 3010.91 1197.52 3004.11 1179.7C3006.85 1194.89 3011.71 1232.09 3044.96 1261.41C3042.07 1266.13 3038.67 1267.7 3035.26 1267.7Z" fill="#8E1841"/>
</g>
<mask id="mask18_1851_6" style="mask-type:luminance" maskUnits="userSpaceOnUse" x="0" y="0" width="4500" height="2626">
<path d="M4500 0.275391H0V2625.72H4500V0.275391Z" fill="white"/>
</mask>
<g mask="url(#mask18_1851_6)">
<path d="M2906.16 1093.82L2950.69 1150.38L2957.5 1074.96C2957.5 1074.96 3000.97 1109.01 3009.21 1107.96C3017.07 1107.44 2997.04 1027.3 2997.04 1027.3C2997.04 1027.3 3055.69 1116.34 3059.36 1114.25C3063.42 1112.14 3065.38 1026.26 3065.38 1026.26C3065.38 1026.26 3110.16 1148.29 3125.09 1147.77C3140.27 1146.19 3136.34 1130.49 3136.34 1130.49L2906.16 1093.82Z" fill="#F5CD28"/>
</g>
<mask id="mask19_1851_6" style="mask-type:luminance" maskUnits="userSpaceOnUse" x="0" y="0" width="4500" height="2626">
<path d="M4500 0.275391H0V2625.72H4500V0.275391Z" fill="white"/>
</mask>
<g mask="url(#mask19_1851_6)">
<path d="M2953.05 1150.9L2904.2 1095.38C2903.55 1094.34 2903.82 1093.29 2904.73 1092.25C2905.64 1091.2 2907.22 1091.2 2908.13 1092.77L2952.39 1148.81L2955.27 1074.44C2980.01 1089.63 3004.11 1105.35 3008.82 1105.87C3010.91 1101.67 3003.45 1062.91 2994.68 1027.82C3019.68 1057.68 3054.9 1109.01 3059.76 1112.14C3060.02 1108.48 3062.24 1065.54 3063.15 1026.26C3088.69 1083.87 3117.36 1145.66 3124.96 1145.14C3128.5 1144.62 3130.98 1143.57 3132.16 1141.48C3135.29 1137.28 3133.86 1131.01 3133.86 1131.01C3138.05 1129.43 3140.54 1138.33 3136.34 1144.62C3133.86 1147.77 3130.32 1149.34 3125.09 1149.86H3124.96C3109.11 1149.86 3073.89 1056.11 3063.42 1027.3C3065.91 1113.73 3061.98 1115.82 3060.53 1116.34C3058.31 1117.39 3054.9 1119.48 2994.95 1028.87C3003.58 1044.06 3017.2 1100.63 3012.23 1109.01C3000.7 1111.62 2966.4 1084.91 2956.05 1076.53L2953.05 1150.9Z" fill="#8E1841"/>
</g>
<mask id="mask20_1851_6" style="mask-type:luminance" maskUnits="userSpaceOnUse" x="0" y="0" width="4500" height="2626">
<path d="M4500 0.275391H0V2625.72H4500V0.275391Z" fill="white"/>
</mask>
<g mask="url(#mask20_1851_6)">
<path d="M2872.91 995.35C2872.91 995.35 2941.38 1057.16 2948.47 1053.49C2955.53 1049.83 2920.31 981.219 2920.31 981.219C2920.31 981.219 2959.59 1018.4 2974.78 1021.01C2989.84 1024.16 2980.01 972.839 2980.01 972.839C2980.01 972.839 3026.5 1012.63 3034.22 1010.02C3042.6 1008.45 3038.41 972.839 3038.41 972.839C3038.41 972.839 3068.53 1003.21 3070.75 1003.21C3072.98 1003.21 3064.33 916.273 3064.33 916.273C3064.33 916.273 3131.89 988.03 3137.13 986.971L2872.91 995.35Z" fill="#F5CD28"/>
</g>
<mask id="mask21_1851_6" style="mask-type:luminance" maskUnits="userSpaceOnUse" x="0" y="0" width="4500" height="2626">
<path d="M4500 0.275391H0V2625.72H4500V0.275391Z" fill="white"/>
</mask>
<g mask="url(#mask21_1851_6)">
<path d="M2948.2 1056.11C2938.51 1056.11 2901.32 1024.16 2871.21 996.933C2870.42 995.874 2870.03 994.828 2871.21 993.259C2871.86 992.736 2873.7 992.736 2874.61 993.259C2905.91 1022.07 2941.65 1051.39 2947.8 1051.39C2948.98 1047.21 2933.66 1012.11 2918.35 982.265C2932.61 989.599 2963.25 1016.83 2975.17 1018.92C2983.03 1013.17 2980.28 988.03 2977.39 973.363C3002.92 989.599 3027.94 1008.45 3033.83 1007.93C3036.96 1006.88 3037.89 990.645 3035.92 973.363C3053.72 984.88 3069.05 1000.07 3071.41 1001.12C3069.3 998.502 3065.12 947.701 3061.98 916.797C3090.65 940.89 3131.89 982.788 3137.27 984.88C3136.34 990.122 3131.25 990.645 3062.76 918.366C3074.55 1002.16 3073.11 1003.73 3072.45 1004.79C3069.3 1005.84 3067.6 1005.84 3036.44 974.41C3042.07 983.835 3043.78 1010.02 3035.01 1012.63C3027.02 1015.26 2991.27 985.927 2979.35 975.456C2983.94 981.221 2989.32 1013.17 2981.32 1021.55C2980.8 1022.07 2975.04 1023.64 2974.26 1023.64C2958.41 1020.49 2920.31 984.359 2918.87 982.79C2946.49 1026.78 2955.8 1052.44 2949.64 1055.59C2949.24 1056.11 2948.98 1056.11 2948.2 1056.11Z" fill="#8E1841"/>
</g>
<mask id="mask22_1851_6" style="mask-type:luminance" maskUnits="userSpaceOnUse" x="0" y="0" width="4500" height="2626">
<path d="M4500 0.275391H0V2625.72H4500V0.275391Z" fill="white"/>
</mask>
<g mask="url(#mask22_1851_6)">
<path d="M2598.34 1017.35C2601.62 1022.59 2612.75 1111.62 2750.88 1075.49C2764.11 1068.15 2758.35 1100.1 2757.55 1109.53C2763.84 1108.48 2829.7 1084.91 2875.14 1118.43C2869.77 1081.25 2859.81 1056.64 2820.67 1035.16C2801.03 1031.5 2787.28 1040.92 2787.28 1040.92C2787.28 1040.92 2620.61 1042.49 2598.34 1017.35Z" fill="#F5CD28"/>
</g>
<mask id="mask23_1851_6" style="mask-type:luminance" maskUnits="userSpaceOnUse" x="0" y="0" width="4500" height="2626">
<path d="M4500 0.275391H0V2625.72H4500V0.275391Z" fill="white"/>
</mask>
<g mask="url(#mask23_1851_6)">
<path d="M2875.14 1121.05C2874.61 1121.05 2874.09 1120.52 2873.7 1120.52C2858.11 1109.01 2837.96 1103.24 2814.39 1103.24C2791.34 1103.24 2770.92 1108.48 2762.41 1111.1C2761.75 1111.1 2758.73 1111.62 2758.35 1110.57C2757.55 1110.05 2755.33 1110.05 2755.33 1109.01L2755.86 1103.76C2756.64 1095.91 2758.34 1080.21 2755.33 1077.06C2729.66 1083.34 2709.38 1086.48 2691.31 1086.48C2641.68 1086.48 2610 1064.49 2597.43 1021.01C2597.17 1020.49 2596.9 1019.97 2596.9 1019.44C2620.34 1076.01 2669.84 1093.81 2750.35 1072.87L2758.73 1073.92C2762.93 1078.62 2762.02 1090.68 2760.57 1103.76L2760.31 1109.53C2770.13 1103.76 2790.68 1098.01 2814.39 1098.01C2836.9 1098.01 2856.15 1103.24 2871.73 1113.19C2866.62 1079.67 2855.36 1057.16 2819.62 1037.77C2817.27 1037.25 2814.12 1036.72 2811.11 1036.72C2798.01 1036.72 2788.72 1043.01 2788.72 1043.01C2744.99 1043.54 2617.46 1041.97 2596.9 1018.92C2596.9 1018.4 2597.17 1017.35 2597.69 1016.83C2598.61 1016.31 2599.65 1014.74 2600.31 1015.78C2615.36 1033.06 2708.34 1038.83 2783.23 1038.83C2785.18 1038.83 2796.06 1032.02 2811.11 1032.02C2814.39 1032.02 2817.66 1032.54 2821.06 1033.06C2861.51 1054.53 2871.86 1079.67 2877.49 1117.91C2877.49 1118.95 2877.23 1120 2876.31 1120.52C2876.05 1120.52 2875.53 1121.05 2875.14 1121.05Z" fill="#8E1841"/>
</g>
<mask id="mask24_1851_6" style="mask-type:luminance" maskUnits="userSpaceOnUse" x="0" y="0" width="4500" height="2626">
<path d="M4500 0.275391H0V2625.72H4500V0.275391Z" fill="white"/>
</mask>
<g mask="url(#mask24_1851_6)">
<path d="M2523.32 1585.08C2520.83 1595.55 2513.9 1598.16 2493.21 1628.02C2502.25 1641.11 2544.27 1661.02 2555.92 1650.02C2566 1644.78 2566.79 1617.03 2566.79 1617.03C2589.05 1650.02 2628.06 1702.39 2672.32 1713.91C2705.32 1724.38 2738.57 1702.39 2738.57 1669.4C2738.57 1635.88 2688.56 1582.99 2666.56 1560.98C2611.05 1494.47 2616.16 1369.3 2511.41 1386.58C2511.15 1387.63 2506.82 1402.29 2496.87 1404.91C2505.25 1420.62 2509.97 1434.24 2489.94 1439.47C2505.52 1454.66 2507.74 1465.67 2487.71 1473.51C2499.89 1489.75 2514.29 1496.04 2486.26 1509.66C2515.47 1538.46 2521.62 1580.36 2523.32 1585.08Z" fill="#F5CD28"/>
</g>
<mask id="mask25_1851_6" style="mask-type:luminance" maskUnits="userSpaceOnUse" x="0" y="0" width="4500" height="2626">
<path d="M4500 0.275391H0V2625.72H4500V0.275391Z" fill="white"/>
</mask>
<g mask="url(#mask25_1851_6)">
<path d="M2689.74 1718.63C2683.45 1718.63 2677.56 1718.11 2671.53 1715.48C2638.55 1707.62 2604.1 1676.21 2566.79 1620.69C2568.75 1627.5 2566.52 1647.4 2557.1 1652.11C2554.87 1654.73 2551.08 1655.25 2545.97 1655.25C2528.69 1655.25 2498.96 1640.58 2491.11 1629.59C2500.14 1613.88 2506.57 1606.02 2511.41 1600.27C2517.04 1592.93 2519.79 1590.3 2520.83 1584.55C2517.56 1571.45 2509.97 1536.37 2484.7 1511.23C2494.39 1502.85 2499.23 1499.19 2499.89 1495.51C2500.55 1492.38 2497.01 1488.18 2492.42 1482.95C2490.33 1480.32 2488.24 1478.23 2485.75 1474.57C2494.39 1468.28 2498.71 1465.13 2499.62 1460.95C2500.55 1456.23 2496.87 1449.43 2488.24 1441.05C2495.31 1435.29 2499.23 1432.67 2500.55 1429.52C2503.3 1424.29 2500.14 1415.91 2494.65 1405.43C2501.33 1400.72 2505.52 1395.48 2508.93 1386.58C2518.09 1383.44 2524.24 1382.92 2530.26 1382.92C2586.96 1382.92 2606.33 1430.57 2627.02 1481.37C2638.55 1509.14 2650.07 1537.41 2668.14 1559.41C2690 1580.88 2740.93 1635.35 2740.93 1669.4C2740.93 1697.15 2718.42 1718.63 2689.74 1718.63ZM2564.7 1617.03C2606.6 1671.49 2640.37 1702.92 2672.98 1711.3C2704.8 1722.29 2736.09 1699.77 2736.09 1669.4C2736.09 1636.92 2686.2 1583.51 2664.85 1562.55C2646 1540.03 2634.22 1511.23 2622.83 1482.95C2600.58 1428.48 2579.63 1377.68 2511.93 1389.2C2509.45 1398.64 2503.94 1404.91 2497.26 1407.01C2503.68 1412.77 2508.66 1423.24 2505.25 1431.62C2503.03 1436.34 2498.32 1439.48 2490.33 1442.1C2501.6 1447.33 2505.64 1455.19 2504.21 1462C2503.03 1467.76 2498.05 1471.95 2488.63 1475.62C2491.76 1475.1 2494.12 1477.71 2496.35 1479.8C2501.6 1486.09 2505.91 1490.81 2504.73 1496.56C2503.55 1501.8 2498.44 1505.99 2487.18 1511.75C2514.29 1533.23 2522.15 1569.89 2524.76 1581.41C2523.99 1591.89 2520.83 1596.07 2514.95 1602.89C2510.5 1608.65 2503.94 1617.03 2495.04 1629.59C2503.68 1637.97 2545.58 1656.3 2554.22 1648.44C2562.34 1644.26 2564.43 1624.35 2564.7 1617.03Z" fill="#8E1841"/>
</g>
<mask id="mask26_1851_6" style="mask-type:luminance" maskUnits="userSpaceOnUse" x="0" y="0" width="4500" height="2626">
<path d="M4500 0.275391H0V2625.72H4500V0.275391Z" fill="white"/>
</mask>
<g mask="url(#mask26_1851_6)">
<path d="M2496.1 649.17C2462.58 697.357 2459.29 1227.37 2469.9 1333.69C2436.26 1355.68 2374.33 1346.77 2357.17 1339.98C2365.29 1301.74 2393.96 687.408 2496.1 649.17Z" fill="#F5CD28"/>
</g>
<mask id="mask27_1851_6" style="mask-type:luminance" maskUnits="userSpaceOnUse" x="0" y="0" width="4500" height="2626">
<path d="M4500 0.275391H0V2625.72H4500V0.275391Z" fill="white"/>
</mask>
<g mask="url(#mask27_1851_6)">
<path d="M2411.24 1349.92C2388.46 1349.92 2366.34 1345.73 2356.26 1342.07C2356.26 1332.64 2358.61 1305.4 2361.49 1268.74C2376.29 1091.72 2410.33 678.505 2495.03 647.078C2465.44 697.879 2460.99 1221.08 2471.87 1333.69C2453.27 1347.3 2428.66 1349.92 2411.24 1349.92ZM2494.12 648.124C2414.78 681.643 2379.69 1107.96 2366.34 1268.74C2363.18 1307.5 2360.96 1333.17 2359.52 1340.5C2367.38 1341.02 2389.12 1345.21 2411.24 1345.21C2428.13 1345.21 2451.57 1343.11 2468.33 1332.12C2457.86 1237.84 2459.56 697.879 2494.12 648.124Z" fill="#8E1841"/>
</g>
<mask id="mask28_1851_6" style="mask-type:luminance" maskUnits="userSpaceOnUse" x="0" y="0" width="4500" height="2626">
<path d="M4500 0.275391H0V2625.72H4500V0.275391Z" fill="white"/>
</mask>
<g mask="url(#mask28_1851_6)">
<path d="M2401.95 1735.39C2401.95 1735.39 2255.18 1755.81 2316.97 1668.88C2369.86 1645.83 2368.56 1699.77 2349.06 1718.11C2373.27 1720.72 2389.12 1705.53 2392.78 1681.44C2362.93 1641.11 2405.49 1614.92 2403.13 1614.92C2301 1637.97 2287.38 1567.8 2324.83 1556.79C2373.02 1559.42 2357.69 1574.61 2376.81 1588.74C2410.99 1556.79 2431.81 1553.65 2452.36 1586.12C2473.18 1554.17 2502.77 1557.85 2503.94 1560.99C2537.2 1617.55 2463.74 1620.69 2434.16 1613.88C2459.29 1641.11 2448.95 1667.83 2440.83 1687.2C2441.75 1706.58 2456.29 1709.2 2479.86 1717.06C2429.31 1577.74 2657.66 1754.24 2428.13 1736.44C2428.66 1742.72 2429.18 1749 2429.31 1754.76C2448.16 1758.42 2461.26 1762.62 2467.42 1782.52C2459.29 1793 2446.86 1794.57 2427.22 1787.24C2427.22 1787.24 2438.74 1819.18 2417.8 1828.09C2400.77 1817.62 2398.54 1793 2398.54 1793C2388.85 1804.52 2374.85 1796.66 2362.93 1787.24C2373.67 1760.53 2403.78 1773.09 2401.95 1735.39Z" fill="#F5CD28"/>
</g>
<mask id="mask29_1851_6" style="mask-type:luminance" maskUnits="userSpaceOnUse" x="0" y="0" width="4500" height="2626">
<path d="M4500 0.275391H0V2625.72H4500V0.275391Z" fill="white"/>
</mask>
<g mask="url(#mask29_1851_6)">
<path d="M2275.86 1311.16C2284.77 1271.36 2376.94 1276.08 2332.95 1319.02C2362.66 1366.16 2452.88 1359.35 2486.66 1332.64C2458.12 1278.17 2535.89 1290.22 2532.62 1331.6C2523.06 1405.43 2265.78 1395.48 2275.86 1311.16Z" fill="#F5CD28"/>
</g>
<mask id="mask30_1851_6" style="mask-type:luminance" maskUnits="userSpaceOnUse" x="0" y="0" width="4500" height="2626">
<path d="M4500 0.275391H0V2625.72H4500V0.275391Z" fill="white"/>
</mask>
<g mask="url(#mask30_1851_6)">
<path d="M3971.17 2015.06C3998.67 2066.9 4047.63 2188.41 4074.61 2217.74C4100.4 2240.26 4163.38 2237.65 4182.76 2211.98C4182.76 2211.98 4223.35 2253.88 4239.71 2266.45C4249.4 2262.79 4255.29 2253.88 4255.29 2253.88C4238.93 2236.06 4216.54 2225.59 4205.42 2192.6C4221.65 2170.61 4231.21 2127.66 4219.68 2094.67C4171.63 2013.49 4010.71 2045.44 3971.17 2015.06Z" fill="#F5CD28"/>
</g>
<mask id="mask31_1851_6" style="mask-type:luminance" maskUnits="userSpaceOnUse" x="0" y="0" width="4500" height="2626">
<path d="M4500 0.275391H0V2625.72H4500V0.275391Z" fill="white"/>
</mask>
<g mask="url(#mask31_1851_6)">
<path d="M4239.45 2269.58L4238.27 2268.54C4221.9 2255.97 4182.76 2215.64 4181.05 2214.08C4169.01 2238.17 4098.18 2242.35 4073.04 2219.3C4054.97 2199.93 4027.74 2140.75 4003.51 2087.86C3990.54 2060.09 3978.64 2033.38 3969.21 2016.1C3986.62 2023.96 4018.04 2026.57 4054.18 2029.72C4115.46 2034.95 4191.13 2041.76 4221.91 2093.61C4233.82 2128.71 4223.61 2172.18 4207.37 2194.17C4215.62 2215.12 4228.98 2226.64 4242.07 2238.17C4247.44 2242.35 4252.54 2247.07 4257.39 2252.3C4257.39 2255.97 4250.84 2265.4 4240.37 2269.06L4239.45 2269.58ZM4180.93 2210.4C4184.72 2210.93 4223.35 2250.73 4240.11 2263.83C4248.49 2260.16 4253.33 2252.3 4253.33 2252.3C4248.88 2250.73 4244.04 2246.03 4238.93 2241.83C4225.31 2229.79 4211.3 2217.74 4203.19 2193.64C4219.02 2170.61 4228.98 2128.71 4217.85 2095.19C4188.39 2046.48 4113.76 2039.67 4054.05 2034.43C4016.86 2031.29 3984.79 2028.68 3969.74 2016.63C3983.09 2031.82 3995.26 2058 4007.83 2085.77C4031.66 2138.14 4058.9 2197.32 4076.31 2216.17C4099.23 2236.06 4163.65 2232.93 4180.93 2210.4Z" fill="#8E1841"/>
</g>
<mask id="mask32_1851_6" style="mask-type:luminance" maskUnits="userSpaceOnUse" x="0" y="0" width="4500" height="2626">
<path d="M4500 0.275391H0V2625.72H4500V0.275391Z" fill="white"/>
</mask>
<g mask="url(#mask32_1851_6)">
<path d="M2244.05 607.794C2216.68 556.47 2167.58 433.913 2140.47 404.591C2115.2 382.066 2051.84 384.694 2032.33 410.356C2032.33 410.356 1991.73 368.981 1975.63 356.404C1965.82 359.555 1959.8 368.98 1959.8 368.98C1976.42 386.262 1998.81 396.733 2009.81 430.252C1993.32 452.254 1984.28 494.675 1995.14 528.194C2043.85 608.84 2204.63 576.89 2244.05 607.794Z" fill="#F5CD28"/>
</g>
<mask id="mask33_1851_6" style="mask-type:luminance" maskUnits="userSpaceOnUse" x="0" y="0" width="4500" height="2626">
<path d="M4500 0.275391H0V2625.72H4500V0.275391Z" fill="white"/>
</mask>
<g mask="url(#mask33_1851_6)">
<path d="M2242.6 609.363C2228.47 598.892 2197.29 595.754 2160.91 593.126C2100.14 587.374 2024.07 580.563 1993.32 529.24C1981.65 493.63 1991.73 450.672 2007.85 428.684C1999.99 407.728 1986.37 395.688 1973.15 384.694C1968.04 379.975 1962.66 375.778 1958.21 370.549C1958.21 366.875 1964.37 357.45 1974.97 353.79C1993.32 366.876 2032.45 407.205 2034.15 408.774C2046.34 384.694 2117.43 381.021 2142.31 403.022C2160.25 422.396 2187.62 482.099 2211.57 534.469C2224.54 562.236 2236.71 588.943 2246.27 606.749L2242.6 609.363ZM1974.19 357.973C1967.52 361.647 1961.75 370.026 1961.75 370.549C1966.07 372.118 1971.31 376.837 1976.42 381.02C1990.03 392.537 2003.79 404.59 2012.16 429.206C1996.18 452.253 1986.62 493.629 1997.63 527.148C2027.09 576.367 2101.71 583.178 2161.43 587.897C2193.11 590.512 2221.13 593.649 2238.15 601.506C2229.24 583.701 2218.5 560.667 2207.26 536.574C2183.28 484.191 2156.32 425.011 2138.64 406.16C2116.25 386.263 2051.31 389.924 2034.15 411.925C2030.36 411.925 1990.16 370.549 1974.19 357.973Z" fill="#8E1841"/>
</g>
<mask id="mask34_1851_6" style="mask-type:luminance" maskUnits="userSpaceOnUse" x="0" y="0" width="4500" height="2626">
<path d="M4500 0.275391H0V2625.72H4500V0.275391Z" fill="white"/>
</mask>
<g mask="url(#mask34_1851_6)">
<path d="M2227.81 2006.68C2176.22 2034.43 2054.06 2083.66 2024.86 2110.37C2002.08 2136.04 2004.83 2199.41 2030.63 2218.78C2030.63 2218.78 1988.73 2259.11 1976.16 2275.87C1979.42 2285.3 1988.73 2291.58 1988.73 2291.58C2006.67 2274.82 2016.75 2252.3 2050 2241.31C2072.26 2257.54 2114.81 2266.97 2147.94 2255.97C2228.99 2207.79 2197.04 2046.48 2227.81 2006.68Z" fill="#F5CD28"/>
</g>
<mask id="mask35_1851_6" style="mask-type:luminance" maskUnits="userSpaceOnUse" x="0" y="0" width="4500" height="2626">
<path d="M4500 0.275391H0V2625.72H4500V0.275391Z" fill="white"/>
</mask>
<g mask="url(#mask35_1851_6)">
<path d="M1988.98 2294.2L1987.55 2293.15C1987.03 2293.15 1977.47 2286.88 1973.93 2276.39C1986.76 2257.54 2027.36 2218.78 2028.92 2217.21C2017.39 2211.98 2009.54 2194.17 2007.31 2172.18C2005.09 2147.04 2010.99 2122.42 2022.9 2108.8C2042.53 2090.99 2101.85 2063.24 2154.1 2039.67C2182.51 2026.57 2208.96 2014.53 2226.63 2005.11C2218.77 2022.91 2215.89 2053.82 2212.75 2090.47C2207.51 2151.22 2201.1 2227.16 2149.12 2257.54C2138.9 2261.2 2127.91 2262.78 2115.99 2262.78C2091.11 2262.78 2064.8 2255.45 2048.56 2242.87C2027.74 2251.25 2015.96 2264.88 2004.83 2277.96C1999.99 2283.2 1995.4 2288.45 1990.43 2293.15L1988.98 2294.2ZM2225.97 2005.63C2211.19 2018.73 2184.46 2030.77 2156.32 2043.87C2104.21 2067.42 2045.16 2094.67 2026.57 2112.47C2015.57 2124.51 2010.08 2148.08 2012.17 2171.65C2014.12 2192.07 2021.46 2208.83 2032.06 2217.21C2031.81 2220.89 1990.43 2261.2 1977.99 2276.92C1980.6 2282.16 1985.85 2286.34 1988.59 2288.45C1993.05 2283.73 1997.11 2279.54 2000.9 2274.82C2012.94 2261.2 2024.61 2247.07 2049.34 2238.69C2075.01 2256.5 2118.08 2263.31 2147.28 2253.36C2196.52 2224.02 2202.8 2149.65 2208.03 2089.95C2211.19 2052.77 2213.93 2020.82 2225.97 2005.63Z" fill="#8E1841"/>
</g>
<mask id="mask36_1851_6" style="mask-type:luminance" maskUnits="userSpaceOnUse" x="0" y="0" width="4500" height="2626">
<path d="M4500 0.275391H0V2625.72H4500V0.275391Z" fill="white"/>
</mask>
<g mask="url(#mask36_1851_6)">
<path d="M3975.49 607.794C4002.99 556.47 4052.08 433.913 4079.06 404.591C4104.33 382.066 4167.7 384.694 4187.21 410.356C4187.21 410.356 4227.81 368.981 4244.04 356.404C4253.72 359.555 4259.87 368.98 4259.87 368.98C4243.38 386.262 4220.47 396.733 4209.73 430.252C4226.1 452.254 4235.26 494.675 4224.13 528.194C4175.82 608.84 4014.91 576.89 3975.49 607.794Z" fill="#F5CD28"/>
</g>
<mask id="mask37_1851_6" style="mask-type:luminance" maskUnits="userSpaceOnUse" x="0" y="0" width="4500" height="2626">
<path d="M4500 0.275391H0V2625.72H4500V0.275391Z" fill="white"/>
</mask>
<g mask="url(#mask37_1851_6)">
<path d="M3976.94 609.364L3973.14 606.749C3983.09 588.944 3995.26 562.236 4007.83 534.469C4032.19 482.099 4059.42 422.395 4077.36 403.544C4102.63 381.019 4170.19 384.157 4189.17 408.773C4187.73 406.159 4226.35 366.875 4242.59 354.312C4255.29 357.45 4261.58 366.875 4261.84 367.398C4256.74 375.778 4251.37 379.974 4246.52 384.694C4233.3 395.688 4219.54 407.728 4211.96 430.776C4228.06 450.673 4238.27 494.154 4226.49 528.718C4195.2 580.565 4119.65 587.375 4058.64 593.126C4022.36 595.754 3991.07 598.37 3976.94 609.364ZM4130.13 391.492C4109.44 391.492 4090.98 397.257 4080.76 406.683C4063.21 425.011 4036.25 484.192 4012.16 536.574C4000.76 560.667 3990.29 583.702 3981.64 600.984C3998.67 593.65 4026.81 590.512 4058.1 587.897C4118.21 582.655 4192.58 576.367 4222.17 526.611C4233.3 493.629 4223.35 452.253 4207.89 431.82C4215.62 404.589 4229.76 392.537 4243.11 381.02C4248.22 376.837 4253.06 372.639 4257.39 367.397C4255.69 367.397 4250.58 360.6 4243.38 357.973C4229.5 370.549 4189.31 411.924 4188.91 411.924C4175.82 399.871 4154.09 391.492 4130.13 391.492Z" fill="#8E1841"/>
</g>
<mask id="mask38_1851_6" style="mask-type:luminance" maskUnits="userSpaceOnUse" x="0" y="0" width="4500" height="2626">
<path d="M4500 0.275391H0V2625.72H4500V0.275391Z" fill="white"/>
</mask>
<g mask="url(#mask38_1851_6)">
<path d="M2317.24 1401.77C2315.01 1418.01 2355.21 1425.86 2396.45 1425.86C2437.3 1426.39 2479.34 1419.05 2481.29 1407.54C2481.68 1386.58 2445.42 1404.91 2403.92 1404.39C2362.66 1404.39 2327.97 1387.63 2317.24 1401.77Z" fill="#F5CD28"/>
</g>
<mask id="mask39_1851_6" style="mask-type:luminance" maskUnits="userSpaceOnUse" x="0" y="0" width="4500" height="2626">
<path d="M4500 0.275391H0V2625.72H4500V0.275391Z" fill="white"/>
</mask>
<g mask="url(#mask39_1851_6)">
<path d="M2398.02 1428.48H2396.45C2381.39 1428.48 2331.5 1426.91 2318.15 1411.72C2315.53 1408.58 2314.35 1404.91 2314.88 1401.25C2322.35 1391.3 2337.4 1393.39 2359.79 1397.05C2373.02 1399.16 2388.07 1401.77 2403.92 1402.29C2419.5 1402.29 2433.63 1399.68 2445.68 1398.1C2463.22 1394.96 2475.79 1393.91 2480.77 1398.63C2482.99 1401.25 2483.9 1404.39 2483.65 1408.06C2481.02 1424.3 2426.7 1428.48 2398.02 1428.48ZM2332.95 1398.1C2326.14 1398.1 2321.56 1399.68 2318.94 1403.34C2319.46 1404.39 2319.85 1405.95 2321.81 1408.06C2329.8 1417.48 2358.34 1423.24 2396.45 1423.77L2398.02 1425.86V1423.77C2444.89 1423.77 2477.63 1414.86 2478.8 1407.54C2479.07 1404.91 2478.27 1403.86 2477.36 1402.29C2473.82 1398.63 2461.65 1399.68 2446.34 1402.82C2434.15 1404.91 2420.02 1406.48 2405.22 1406.48C2387.55 1406.48 2372.22 1404.38 2359.13 1401.77C2349.05 1399.68 2340.15 1398.1 2332.95 1398.1Z" fill="#F5CD28"/>
</g>
<mask id="mask40_1851_6" style="mask-type:luminance" maskUnits="userSpaceOnUse" x="0" y="0" width="4500" height="2626">
<path d="M4500 0.275391H0V2625.72H4500V0.275391Z" fill="white"/>
</mask>
<g mask="url(#mask40_1851_6)">
<path d="M2320.38 1448.38C2321.17 1464.09 2360.71 1467.76 2395.93 1468.81C2431.15 1469.85 2466.62 1463.04 2473.18 1451.53C2466.89 1433.72 2427.88 1448.38 2395.93 1449.43C2364.11 1450.48 2328.75 1433.72 2320.38 1448.38Z" fill="#F5CD28"/>
</g>
<mask id="mask41_1851_6" style="mask-type:luminance" maskUnits="userSpaceOnUse" x="0" y="0" width="4500" height="2626">
<path d="M4500 0.275391H0V2625.72H4500V0.275391Z" fill="white"/>
</mask>
<g mask="url(#mask41_1851_6)">
<path d="M2403.13 1471.42H2395.93C2359.92 1469.85 2318.67 1466.19 2318.02 1448.38C2322.08 1440.53 2329.8 1440 2334.91 1440C2341.85 1440 2350.23 1441.58 2359.52 1442.62C2370.4 1445.24 2382.17 1446.81 2393.57 1446.81C2405.87 1446.28 2416.75 1445.24 2426.95 1443.67C2437.03 1442.1 2446.86 1440.53 2454.72 1440.53C2462.04 1440.53 2472.12 1441.58 2475.53 1451C2467.94 1465.67 2432.72 1471.42 2403.13 1471.42ZM2334.91 1444.72C2328.5 1444.72 2324.44 1445.76 2322.6 1449.43C2323.26 1458.86 2347.87 1465.13 2396.18 1466.19L2403.13 1466.72C2436.12 1466.72 2465.97 1459.38 2471.21 1450.48C2467.67 1445.24 2449.86 1444.71 2427.74 1447.85C2417.27 1449.96 2406.14 1451.53 2395.93 1452.05C2383.75 1453.62 2369.61 1449.96 2358.61 1447.85C2349.83 1445.76 2341.59 1444.72 2334.91 1444.72Z" fill="#F5CD28"/>
</g>
<mask id="mask42_1851_6" style="mask-type:luminance" maskUnits="userSpaceOnUse" x="0" y="0" width="4500" height="2626">
<path d="M4500 0.275391H0V2625.72H4500V0.275391Z" fill="white"/>
</mask>
<g mask="url(#mask42_1851_6)">
<path d="M2331.77 1490.27C2329.02 1501.8 2364.11 1510.18 2396.45 1510.71C2428.66 1510.71 2474.61 1498.65 2474.88 1485.57C2472.91 1475.62 2427.74 1489.23 2397.36 1490.27C2366.99 1491.33 2331.77 1479.28 2331.77 1490.27Z" fill="#F5CD28"/>
</g>
<mask id="mask43_1851_6" style="mask-type:luminance" maskUnits="userSpaceOnUse" x="0" y="0" width="4500" height="2626">
<path d="M4500 0.275391H0V2625.72H4500V0.275391Z" fill="white"/>
</mask>
<g mask="url(#mask43_1851_6)">
<path d="M2397.36 1512.8H2396.45C2371.04 1512.8 2339.5 1507.03 2331.37 1497.08C2329.8 1494.47 2329.02 1492.38 2329.55 1489.75C2329.55 1482.95 2338.05 1482.95 2340.93 1482.95C2346.17 1482.95 2353.1 1484 2360.96 1485.04C2371.04 1486.61 2382.17 1487.66 2393.31 1487.66C2408.89 1487.66 2422.25 1485.57 2434.81 1482.95C2446.86 1481.37 2457.59 1479.28 2464.92 1479.28C2468.07 1479.28 2476.32 1479.28 2477.11 1485.57C2476.84 1501.28 2428.4 1512.8 2397.36 1512.8ZM2340.93 1487.66C2336.34 1487.66 2334.25 1488.18 2334.25 1490.27C2341.2 1501.81 2368.56 1508.09 2396.7 1508.09L2397.36 1510.71V1508.09C2430.1 1508.09 2472.12 1495.52 2472.39 1485.57C2472.12 1485.05 2455.5 1485.05 2435.6 1488.18C2422.9 1489.75 2409.15 1492.38 2397.36 1492.38C2380.6 1492.38 2370.52 1491.33 2360.44 1489.75C2352.72 1488.71 2345.9 1487.66 2340.93 1487.66Z" fill="#F5CD28"/>
</g>
<mask id="mask44_1851_6" style="mask-type:luminance" maskUnits="userSpaceOnUse" x="0" y="0" width="4500" height="2626">
<path d="M4500 0.275391H0V2625.72H4500V0.275391Z" fill="white"/>
</mask>
<g mask="url(#mask44_1851_6)">
<path d="M2327.97 1533.23C2330.59 1544.75 2370.52 1548.41 2405.49 1545.79C2440.71 1543.18 2476.32 1532.71 2479.07 1519.61C2477.36 1511.75 2437.3 1525.9 2403.92 1527.47C2370.79 1529.56 2327.58 1523.27 2327.97 1533.23Z" fill="#F5CD28"/>
</g>
<mask id="mask45_1851_6" style="mask-type:luminance" maskUnits="userSpaceOnUse" x="0" y="0" width="4500" height="2626">
<path d="M4500 0.275391H0V2625.72H4500V0.275391Z" fill="white"/>
</mask>
<g mask="url(#mask45_1851_6)">
<path d="M2384.67 1548.93C2371.57 1548.93 2329.02 1547.36 2325.87 1533.23C2329.8 1526.42 2337.13 1524.85 2352.19 1524.85L2388.85 1525.37C2393.96 1525.37 2398.93 1525.37 2403.78 1524.85C2418.05 1524.33 2433.63 1521.7 2446.86 1519.09C2457.86 1516.99 2467.15 1514.89 2473.18 1514.89C2474.88 1514.89 2480.5 1514.89 2481.56 1519.61C2477.89 1534.8 2439.92 1545.79 2405.74 1547.88C2398.81 1548.41 2391.61 1548.93 2384.67 1548.93ZM2352.19 1529.56C2339.5 1529.56 2332.03 1530.6 2330.32 1532.71C2331.77 1538.46 2350.76 1544.23 2384.67 1544.23C2391.61 1544.23 2398.54 1543.7 2405.49 1543.18C2441.49 1540.55 2474.35 1529.56 2476.84 1519.61C2467.42 1519.61 2458.24 1521.7 2447.77 1523.27C2434.29 1526.42 2418.32 1529.03 2403.92 1529.56C2399.2 1530.08 2393.96 1530.08 2388.85 1530.08L2352.19 1529.56Z" fill="#F5CD28"/>
</g>
</g>
</svg>
